<?xml version="1.0" encoding="utf-8"?>
<!-- Generator: Adobe Illustrator 26.0.1, SVG Export Plug-In . SVG Version: 6.00 Build 0)  -->
<svg version="1.1" id="Layer_1" xmlns="http://www.w3.org/2000/svg" xmlns:xlink="http://www.w3.org/1999/xlink" x="0px" y="0px"
	 viewBox="0 0 550.7 568" style="enable-background:new 0 0 550.7 568;" xml:space="preserve">
<style type="text/css">
	.st0{fill:#15192A;}
	.st1{fill:#9E616A;}
	.st2{fill:#005DF9;}
	.st3{fill:#191F30;}
	.st4{fill:#2F2E41;}
</style>
<path class="st0" d="M386.6,568H235.9c-3.6,0-6.6-3-6.6-6.6V456c0-3.6,3-6.6,6.6-6.6h150.7c3.6,0,6.6,3,6.6,6.6v105.4
	C393.2,565,390.2,568,386.6,568z"/>
<path class="st1" d="M140.3,293.3c3.8-4.9,3-11.9-1.9-15.8c-0.5-0.4-1.1-0.8-1.7-1.1l-0.9-100.8l-18.8,8.6l4.1,97.5
	c-2.5,5.7,0,12.4,5.7,14.9C131.5,298.8,137.1,297.4,140.3,293.3z"/>
<path class="st1" d="M139.8,150.1c0,0-18.3-8.9-20.9,7.9s-13,60.4-13,60.4l31.6-2.2L139.8,150.1z"/>
<path class="st1" d="M140.3,293.3c3.8-4.9,3-11.9-1.9-15.8c-0.5-0.4-1.1-0.8-1.7-1.1l-0.9-100.8l-18.8,8.6l4.1,97.5
	c-2.5,5.7,0,12.4,5.7,14.9C131.5,298.8,137.1,297.4,140.3,293.3z"/>
<path class="st2" d="M139.8,150.1c0,0-18.3-8.9-20.9,7.9s-13,60.4-13,60.4l31.6-2.2L139.8,150.1z"/>
<path class="st3" d="M86.7,538.5c-2,0.1-3.7-1.5-3.8-3.4c0-1.1,0.4-2.1,1.2-2.8c0.1-0.4,0.2-0.6,0.2-1c0-0.1-0.1-0.2-0.1-0.2
	c-2.1-4.9-7.8-7.2-12.7-5.2c-2.3,1-4.2,2.9-5.2,5.2c-2.9,7.1-6.7,14.1-7.6,21.6c-0.4,3.3-0.2,6.6,0.5,9.9
	c-6.9-15-10.4-31.3-10.5-47.8c0-4.1,0.2-8.3,0.7-12.4c0.4-3.4,0.9-6.7,1.6-10c3.7-18,11.6-35,23.1-49.3c5.6-3,10.1-7.7,12.9-13.4
	c1-2,1.7-4.2,2.1-6.5c-0.6,0.1-1.3,0.1-1.9,0.2c-0.2,0-0.4,0-0.6,0l-0.1,0c-2,0.1-3.6-1.4-3.7-3.4c0-0.9,0.2-1.7,0.8-2.4
	c0.3-0.3,0.5-0.7,0.8-1c0.4-0.5,0.8-1,1.2-1.5c0,0,0.1-0.1,0.1-0.2c0.5-0.6,0.9-1.2,1.4-1.7c-0.9-1.3-2-2.5-3.4-3.3
	c-4.7-2.8-11.3-0.9-14.7,3.4c-3.4,4.3-4.1,10.3-2.9,15.7c1.2,4.6,3.1,8.9,5.7,12.8c-0.3,0.3-0.5,0.6-0.8,1
	c-4.7,6-8.8,12.5-12.2,19.4c0.8-7.7-0.2-15.4-2.9-22.6c-2.8-6.7-8-12.4-12.6-18.2c-5.5-7-16.8-3.9-17.8,4.9c0,0.1,0,0.2,0,0.3
	c0.7,0.4,1.4,0.8,2,1.2c2.3,1.5,2.9,4.5,1.4,6.8c-0.8,1.1-2,1.9-3.3,2.1l-0.1,0c0.2,2.5,0.7,4.9,1.3,7.3c3.6,13.5,12.6,24.9,25,31.5
	c0.4,0.2,0.8,0.4,1.2,0.6c-3.4,9.8-5.6,20-6.4,30.3c-0.5,6.1-0.4,12.2,0.1,18.3l0-0.2c-1.3-6.8-4.9-12.9-10.2-17.3
	c-7.9-6.5-19-8.9-27.5-14c-2.6-1.7-6.1-0.9-7.8,1.7c-0.7,1.1-1,2.5-0.8,3.8c0,0.1,0,0.2,0,0.2c1.3,0.5,2.5,1.1,3.7,1.8
	c0.7,0.4,1.4,0.8,2,1.2c2.3,1.5,2.9,4.5,1.4,6.8c-0.8,1.1-2,1.9-3.3,2.1l-0.1,0c-0.1,0-0.1,0-0.2,0c2.2,5.2,5.2,9.9,9,14.1
	c9.4,10.1,22.6,15.9,36.4,16h0c1.9,8.1,4.5,15.9,8,23.4H86c0.1-0.3,0.2-0.6,0.3-1c-2.7,0.2-5.3,0-7.9-0.5c2.1-2.6,4.3-5.2,6.4-7.9
	c0,0,0.1-0.1,0.1-0.2c1.1-1.3,2.2-2.7,3.2-4l0,0C88.2,546.5,87.7,542.4,86.7,538.5L86.7,538.5z"/>
<path class="st3" d="M509.7,538.5c-2,0.1-3.7-1.5-3.8-3.4c0-1.1,0.4-2.1,1.2-2.8c0.1-0.4,0.2-0.6,0.2-1c0-0.1-0.1-0.2-0.1-0.2
	c-2.1-4.9-7.8-7.2-12.7-5.2c-2.3,1-4.2,2.9-5.2,5.2c-2.9,7.1-6.7,14.1-7.6,21.6c-0.4,3.3-0.2,6.6,0.5,9.9
	c-6.9-15-10.4-31.3-10.5-47.8c0-4.1,0.2-8.3,0.7-12.4c0.4-3.4,0.9-6.7,1.6-10c3.7-18,11.6-35,23.1-49.3c5.6-3,10.1-7.7,12.9-13.4
	c1-2,1.7-4.2,2.1-6.5c-0.6,0.1-1.3,0.1-1.9,0.2c-0.2,0-0.4,0-0.6,0l-0.1,0c-2,0.1-3.6-1.4-3.7-3.4c0-0.9,0.2-1.7,0.8-2.4
	c0.3-0.3,0.5-0.7,0.8-1c0.4-0.5,0.8-1,1.2-1.5c0,0,0.1-0.1,0.1-0.2c0.5-0.6,0.9-1.2,1.4-1.7c-0.9-1.3-2-2.5-3.4-3.3
	c-4.7-2.8-11.3-0.9-14.7,3.4c-3.4,4.3-4.1,10.3-2.9,15.7c1.2,4.6,3.1,8.9,5.7,12.8c-0.3,0.3-0.5,0.6-0.8,1
	c-4.7,6-8.8,12.5-12.2,19.4c0.8-7.7-0.2-15.4-2.9-22.6c-2.8-6.7-8-12.4-12.6-18.2c-5.5-7-16.8-3.9-17.8,4.9c0,0.1,0,0.2,0,0.3
	c0.7,0.4,1.4,0.8,2,1.2c2.3,1.5,2.9,4.5,1.4,6.8c-0.8,1.1-2,1.9-3.3,2.1l-0.1,0c0.2,2.5,0.7,4.9,1.3,7.3c3.6,13.5,12.6,24.9,25,31.5
	c0.4,0.2,0.8,0.4,1.2,0.6c-3.5,9.8-5.6,20-6.4,30.3c-0.5,6.1-0.4,12.2,0.1,18.3l0-0.2c-1.3-6.8-4.9-12.9-10.2-17.3
	c-7.9-6.5-19-8.9-27.5-14c-2.6-1.7-6.1-0.9-7.8,1.7c-0.7,1.1-1,2.5-0.8,3.8c0,0.1,0,0.2,0,0.2c1.3,0.5,2.5,1.1,3.7,1.8
	c0.7,0.4,1.4,0.8,2,1.2c2.3,1.5,2.9,4.5,1.4,6.8c-0.8,1.1-2,1.9-3.3,2.1l-0.1,0c-0.1,0-0.1,0-0.2,0c2.2,5.2,5.2,9.9,9,14.1
	c9.4,10.1,22.6,15.9,36.4,16h0c1.9,8.1,4.5,15.9,8,23.4H509c0.1-0.3,0.2-0.6,0.3-1c-2.7,0.2-5.3,0-7.9-0.5c2.1-2.6,4.3-5.2,6.4-7.9
	c0,0,0.1-0.1,0.1-0.2c1.1-1.3,2.2-2.7,3.2-4l0,0C511.2,546.5,510.7,542.4,509.7,538.5L509.7,538.5z"/>
<path class="st3" d="M399.2,563.9c-0.1,0-0.2,0-0.2,0c-4.4-0.2-7.8-3.9-7.7-8.3c0-12.8-9.1-20.3-18.2-22c-9.1-1.7-20.3,1.9-25,13.8
	l-4.3,10.7c-7.7,7.7-20.1,7.7-27.8,0l-0.3-0.3l0.2-0.3l75.3-154.1v-3.8c-0.1-1.2-0.1-2.3,0-3.5l0-388.2c0-4.4,3.6-7.9,7.9-7.9
	c0.1,0,0.2,0,0.2,0c4.4,0.2,7.8,3.9,7.7,8.3v387.9c0.1,1.2,0.1,2.3,0,3.5l0,3.7l75.5,154.5l-0.3,0.3c-7.7,7.7-20.1,7.7-27.8,0
	l-0.1-0.2l-4.2-10.5c-4.7-11.9-15.9-15.5-25-13.8c-9.1,1.7-18.2,9.2-18.2,22v0.3C407.2,560.3,403.6,563.9,399.2,563.9L399.2,563.9z"
	/>
<path class="st0" d="M537.1,281H261.3c-6.7,0-12.1-5.4-12.1-12.1V76.1c0-6.7,5.4-12.1,12.1-12.1h275.8c6.7,0,12.1,5.4,12.1,12.1
	v192.8C549.2,275.6,543.8,281,537.1,281z"/>
<path class="st3" d="M537.1,282.5H261.3c-7.5,0-13.6-6.1-13.6-13.6V76.1c0-7.5,6.1-13.6,13.6-13.6h275.8c7.5,0,13.6,6.1,13.6,13.6
	v192.8C550.7,276.4,544.6,282.5,537.1,282.5z M261.3,65.5c-5.8,0-10.6,4.7-10.6,10.6v192.8c0,5.8,4.7,10.6,10.6,10.6h275.8
	c5.8,0,10.6-4.7,10.6-10.6V76.1c0-5.8-4.7-10.6-10.6-10.6L261.3,65.5z"/>
<path class="st3" d="M440,76h-81.6c-10.8,0-19.5-8.7-19.5-19.5v-0.4h120.6v0.4C459.5,67.3,450.8,76,440,76z"/>
<path class="st3" d="M440.3,293h-81.6c-10.8,0-19.5-8.7-19.5-19.5v-0.4h120.6v0.4C459.8,284.3,451.1,293,440.3,293z"/>
<path class="st3" d="M549.7,564.9c0,0.7-0.5,1.2-1.2,1.2c0,0,0,0,0,0H1.2c-0.7,0-1.2-0.5-1.2-1.2s0.5-1.2,1.2-1.2h547.3
	C549.1,563.7,549.7,564.2,549.7,564.9C549.7,564.9,549.7,564.9,549.7,564.9z"/>
<polygon class="st1" points="184.3,537.2 198.7,537.2 205.6,481.6 184.3,481.6 "/>
<path class="st4" d="M179.4,530.1l22.8-1.4v9.8l21.7,15c2.8,1.9,3.5,5.7,1.6,8.5c-1.1,1.6-3,2.6-5,2.6h-27.1l-4.7-9.7l-1.8,9.7
	h-10.2L179.4,530.1z"/>
<polygon class="st1" points="135.3,227.9 133.9,234.6 132.7,259.4 180.9,252.9 184.6,224.2 179.5,215.8 "/>
<polygon class="st1" points="111.3,537.2 125.8,537.2 132.6,481.6 111.3,481.6 "/>
<path class="st4" d="M103.5,438.9l0-0.1l5.4-25.2l3.3-12.5l-9.2-73.4c-2.2-53.3,28.8-79,29-79.2l0.7-0.7l49.6-1.2
	c26.7,16,23.7,103.5,28.6,163c0.3,4.2,4.7,10.5,3.7,14.5c-8.5,32-6,66.7-12.6,67.7l-20-0.3l-10.3-46.8l9.5-35.7
	c-4.2-0.8-7.1-21.4-7.1-21.4c-1.8-2.2-8.2-20.8-8.2-20.8l-8.5-51.4l-13.6,88.4l3.3,20.7l-2.7,7.1l-11.6,58.9l-0.1,0.9l-21.9-2.2
	L103.5,438.9z"/>
<path class="st4" d="M106.5,530.1l22.8-1.4v9.8l21.7,15c2.8,1.9,3.5,5.7,1.6,8.5c-1.1,1.6-3,2.6-5,2.6h-27.1l-4.7-9.7l-1.8,9.7
	h-10.2L106.5,530.1z"/>
<path class="st2" d="M175.1,130.8l12.2,13.5l14.6,27.5l-7.2,34l3.1,15.9l4.6,17.5c-17.9,9.9-39.1-3.8-58.6-9.8l-19.2,8.5l1-23.3
	l0.5-58.8c0.1-9.1,7.5-16.4,16.6-16.3c0.4,0,0.7,0,1.1,0l0,0l12.8-9.5L175.1,130.8z"/>
<circle class="st1" cx="171.7" cy="98.1" r="25.7"/>
<path class="st4" d="M201.9,88.8c-0.5,2.5-11.3,3.7-10.9-0.7c-2.1,4.2-5.2,10.3-1.2,17.3c-3.2,3.5-3.8,8.7-1.5,12.8
	c1.1,1.9,2.1,3.8,2.8,5.8c0.2,0.5,0.3,1,0.3,1.5c0.2,1.6-0.9,3-2.5,3.2c-0.5,0.1-1.1,0-1.6-0.3c-10.9-5.3-29.9-4.4-41.8-1.2
	c0.1-2.3,0-4.6-0.1-6.9c-0.4,2.9-1.6,5.6-3.4,7.9c-2,0.6-4,1.2-6,1.8c-0.9,0.3-1.9-0.2-2.2-1.1c-0.1-0.3-0.1-0.7,0-1
	c0.4-1.4,0.4-2.8,0.2-4.2c-0.5-2.9-2-5.5-3-8.3s-1.6-5.9-0.4-8.6c2-4.1,7.5-5.4,9.9-9.2c2.7-4.3,0.6-10,1-15.1
	c0.6-7.2,6.5-13.1,13.2-15.9c11.6-4.9,26-0.9,34.7,8.2c2.5-1.7,5.7-1.8,8.3-0.4c2.6,1.4,4.4,2.1,5.6,4.8
	C204.5,81.6,202.3,86.3,201.9,88.8z"/>
<path class="st0" d="M190.8,390.5l-60.4-60.4c-1.5-1.5-1.5-3.8,0-5.3c0,0,0,0,0,0l42.2-42.2c1.5-1.5,3.8-1.5,5.3,0l60.4,60.4
	c1.5,1.4,1.5,3.8,0.1,5.3c0,0,0,0-0.1,0l-42.2,42.2C194.7,392,192.3,392,190.8,390.5z"/>
<path class="st3" d="M193.5,392.6c-1.3,0-2.5-0.5-3.4-1.4l-60.4-60.4c-1.9-1.9-1.9-4.9,0-6.7L172,282c1.9-1.9,4.9-1.9,6.7,0
	l60.4,60.4c1.9,1.9,1.9,4.9,0,6.7l-42.2,42.2C196,392.1,194.7,392.6,193.5,392.6z M175.3,282.6c-0.7,0-1.4,0.3-1.9,0.8l-42.2,42.2
	c-1.1,1.1-1.1,2.8,0,3.9l60.4,60.4c1.1,1,2.8,1,3.9,0l42.2-42.2c1.1-1.1,1.1-2.8,0-3.9l-60.4-60.4
	C176.8,282.9,176.1,282.6,175.3,282.6z"/>
<path class="st1" d="M168.1,288.3c-3.8-4.9-3-11.9,1.9-15.8c0.5-0.4,1.1-0.8,1.7-1.1l0.9-100.8l18.8,8.6l-4.1,97.5
	c2.5,5.7,0,12.4-5.7,14.9C176.9,293.8,171.3,292.4,168.1,288.3z"/>
<path class="st1" d="M168.6,145.1c0,0,18.3-8.9,20.9,7.9s13,60.4,13,60.4l-31.6-2.2L168.6,145.1z"/>
<path class="st1" d="M168.1,288.3c-3.8-4.9-3-11.9,1.9-15.8c0.5-0.4,1.1-0.8,1.7-1.1l0.9-100.8l18.8,8.6l-4.1,97.5
	c2.5,5.7,0,12.4-5.7,14.9C176.9,293.8,171.3,292.4,168.1,288.3z"/>
<path class="st2" d="M168.6,145.1c0,0,18.3-8.9,20.9,7.9s13,60.4,13,60.4l-31.6-2.2L168.6,145.1z"/>
</svg>
