<svg width="44" height="44" viewBox="0 0 44 44" fill="none" xmlns="http://www.w3.org/2000/svg">
<rect width="44" height="44" rx="5" fill="#E61C95"/>
<rect width="24" height="24" transform="translate(10 10)" fill="#E61C95"/>
<path fill-rule="evenodd" clip-rule="evenodd" d="M13.5 26.343L14.57 28.55L17 28.885L15.231 30.585L15.663 33L13.5 31.843L11.337 33L11.769 30.585L10 28.885L12.43 28.55L13.5 26.343ZM22 26.343L23.07 28.55L25.5 28.885L23.731 30.585L24.163 33L22 31.843L19.837 33L20.269 30.585L18.5 28.885L20.93 28.55L22 26.343ZM30.5 26.343L31.57 28.55L34 28.885L32.231 30.585L32.663 33L30.5 31.843L28.337 33L28.769 30.585L27 28.885L29.43 28.55L30.5 26.343ZM29.507 23H29.497C29.519 18.094 27.251 20.228 27.251 16.324C27.251 14.817 28.234 14 29.499 14C31.368 14 32.668 15.787 30.898 19.129C30.317 20.228 31.518 20.488 32.808 20.786C33.926 21.044 34 21.591 34 22.537V25H29.507V23ZM10 25V22.537C10 21.591 10.074 21.044 11.192 20.786C12.482 20.488 13.683 20.228 13.102 19.129C11.332 15.787 12.632 14 14.501 14C15.766 14 16.749 14.817 16.749 16.324C16.749 20.228 14.481 18.094 14.503 23H14.508V25H10ZM16 25V22.377C16 21.119 16.1 20.392 17.588 20.048C19.272 19.659 20.932 19.312 20.133 17.839C17.767 13.475 19.459 11 21.999 11C24.49 11 26.225 13.383 23.865 17.839C23.09 19.303 24.691 19.651 26.41 20.048C27.9 20.392 27.999 21.12 27.999 22.381L28 25H16Z" fill="white"/>
</svg>
