<svg width="44" height="44" viewBox="0 0 44 44" fill="none" xmlns="http://www.w3.org/2000/svg">
<rect width="44" height="44" rx="5" fill="#309BBC"/>
<path fill-rule="evenodd" clip-rule="evenodd" d="M34 11V30.98C34 32.096 33.095 33 31.979 33H12.02C10.905 33 10 32.095 10 30.98V13H12V30.199C12 30.97 13 30.97 13 30.199V11H34ZM32 30V13H15V30H32ZM30 27V28H17V27H30ZM23 21V25H17V21H23ZM30 24V25H25V24H30ZM30 21V22H25V21H30ZM26.271 18.646C26.993 18.646 27.507 18.246 27.507 17.57C27.507 16.828 26.941 16.643 26.437 16.483C25.919 16.317 25.838 16.207 25.838 16.047C25.838 15.907 25.957 15.781 26.195 15.781C26.499 15.781 26.656 15.937 26.77 16.187L27.412 15.791C27.169 15.275 26.741 15 26.195 15C25.619 15 25.077 15.391 25.077 16.067C25.077 16.738 25.562 16.989 26.057 17.134C26.556 17.279 26.746 17.364 26.746 17.58C26.746 17.715 26.656 17.865 26.294 17.865C25.919 17.865 25.714 17.67 25.595 17.379L24.939 17.78C25.125 18.296 25.572 18.646 26.271 18.646ZM28.957 18.646C29.68 18.646 30.193 18.246 30.193 17.57C30.193 16.828 29.627 16.643 29.123 16.483C28.605 16.317 28.524 16.207 28.524 16.047C28.524 15.907 28.643 15.781 28.881 15.781C29.185 15.781 29.342 15.937 29.456 16.187L30.098 15.791C29.856 15.275 29.428 15 28.881 15C28.306 15 27.764 15.391 27.764 16.067C27.764 16.738 28.249 16.989 28.743 17.134C29.242 17.279 29.432 17.364 29.432 17.58C29.432 17.715 29.342 17.865 28.981 17.865C28.605 17.865 28.401 17.67 28.282 17.379L27.626 17.78C27.811 18.296 28.258 18.646 28.957 18.646ZM17.617 18.576H16.857V15.07H18.117C18.773 15.07 19.281 15.606 19.281 16.272C19.281 16.938 18.773 17.474 18.117 17.474H17.617V18.576ZM24.654 15.841H23.347V16.423H24.535V17.184H23.347V17.805H24.678V18.576H22.586V15.07H24.654V15.841ZM20.423 18.576H19.662V15.07H20.993C21.625 15.07 22.134 15.606 22.134 16.272C22.134 16.703 21.887 17.094 21.521 17.289L22.229 18.576H21.411L20.784 17.424H20.423V18.576ZM18.117 15.821H17.617V16.723H18.117C18.35 16.723 18.521 16.528 18.521 16.272C18.521 16.017 18.35 15.821 18.117 15.821ZM20.993 15.821H20.423V16.723H20.993C21.202 16.723 21.373 16.528 21.373 16.272C21.373 16.017 21.202 15.821 20.993 15.821Z" fill="white"/>
</svg>
