<svg width="44" height="44" viewBox="0 0 44 44" fill="none" xmlns="http://www.w3.org/2000/svg">
<rect width="44" height="44" rx="5" fill="#D94C2B"/>
<path fill-rule="evenodd" clip-rule="evenodd" d="M28.5 31C29.215 31 30 31.566 30 32.5C30 33.215 29.434 34 28.5 34H14.5C13.571 34 13 33.224 13 32.5C13 31.78 13.573 31 14.5 31H28.5ZM28.411 30H14.516C12.767 24.022 21.536 21.8 19.188 19.569C17.822 18.271 16.35 21.113 14.417 20.483C13.104 20.056 12.432 17.602 13.702 17C16.059 15.882 15.778 13.635 16.815 12.847C17.982 11.961 19.162 13.058 19.923 12.464C20.403 12.088 19.908 11.048 19.15 10C24.691 10.565 27.619 13.854 28.609 17H26.853C26.613 17 26.353 17.189 26.353 17.5C26.353 17.739 26.542 18 26.853 18H28.86C28.954 18.496 29 18.979 29 19.44L28.988 20H27.147C26.837 20 26.647 20.26 26.647 20.5C26.647 20.739 26.837 21 27.147 21H28.907C28.815 21.747 28.664 22.406 28.488 23H26.5C26.189 23 26 23.26 26 23.5C26 23.739 26.189 24 26.5 24H28.151C27.272 26.364 26.299 27.669 28.411 30ZM18.236 14C18.658 14 19 14.307 19 14.684C19 15.062 18.658 15.368 18.236 15.368C17.815 15.368 17.473 15.062 17.473 14.684C17.473 14.307 17.815 14 18.236 14Z" fill="white"/>
</svg>
