<svg width="116" height="24" viewBox="0 0 116 24" fill="none" xmlns="http://www.w3.org/2000/svg">
<g clip-path="url(#clip0)">
<path fill-rule="evenodd" clip-rule="evenodd" d="M13.001 24.022H11.001L11 5.022L12.016 6.022L13 5.022L13.001 24.022ZM10.221 15.635C8.643 15.125 7.079 15.403 6.113 16.264C4.594 17.618 4.893 19.88 4.893 19.88C4.893 19.88 7.473 20.629 9.002 19.266C10.46 17.966 10.221 15.809 10.221 15.635ZM13.766 15.635C15.344 15.125 16.908 15.403 17.874 16.264C19.393 17.618 19.095 19.88 19.095 19.88C19.095 19.88 16.515 20.629 14.986 19.266C13.527 17.966 13.767 15.809 13.766 15.635V15.635ZM18.072 14.487C19.222 13.518 20.631 13.216 21.736 13.608C23.475 14.224 24 16.225 24 16.225C24 16.225 22.09 17.738 20.34 17.118C18.671 16.526 18.132 14.633 18.072 14.487ZM5.928 14.487C4.778 13.518 3.369 13.216 2.264 13.608C0.525 14.224 0 16.225 0 16.225C0 16.225 1.91 17.738 3.66 17.118C5.329 16.526 5.868 14.633 5.928 14.487ZM10.162 14.452C10.415 13.055 10 11.759 9.159 11.038C7.837 9.904 5.952 10.415 5.952 10.415C5.952 10.415 5.611 12.689 6.942 13.831C8.211 14.92 10.014 14.471 10.162 14.452V14.452ZM13.838 14.452C13.585 13.055 14 11.759 14.841 11.038C16.163 9.904 18.048 10.415 18.048 10.415C18.048 10.415 18.389 12.689 17.058 13.831C15.789 14.92 13.986 14.471 13.838 14.452V14.452ZM18.377 12.105C18.797 10.895 19.697 10.06 20.677 9.865C22.219 9.559 23.475 10.795 23.475 10.795C23.475 10.795 22.735 12.735 21.184 13.043C19.703 13.338 18.485 12.186 18.377 12.105V12.105ZM5.623 12.105C5.203 10.895 4.303 10.06 3.323 9.865C1.781 9.559 0.525 10.795 0.525 10.795C0.525 10.795 1.265 12.735 2.816 13.043C4.297 13.338 5.515 12.186 5.623 12.105ZM13.579 9.743C13.555 8.423 14.13 7.296 15.009 6.76C16.391 5.917 18.045 6.667 18.045 6.667C18.045 6.667 18.018 8.806 16.626 9.654C15.299 10.464 13.711 9.782 13.579 9.743ZM10.421 9.743C10.445 8.423 9.87 7.296 8.991 6.76C7.609 5.917 5.955 6.667 5.955 6.667C5.955 6.667 5.982 8.806 7.374 9.654C8.701 10.464 10.289 9.782 10.421 9.743V9.743ZM5.633 9.243C5.708 8.078 5.247 7.059 4.493 6.549C3.306 5.747 1.815 6.342 1.815 6.342C1.815 6.342 1.75 8.232 2.944 9.039C4.084 9.809 5.514 9.272 5.633 9.243ZM18.367 9.243C18.292 8.078 18.753 7.059 19.507 6.549C20.694 5.747 22.185 6.342 22.185 6.342C22.185 6.342 22.25 8.232 21.056 9.039C19.916 9.809 18.486 9.272 18.367 9.243ZM14.209 6.288C13.64 5.184 13.656 3.995 14.175 3.177C14.991 1.89 16.699 1.836 16.699 1.836C16.699 1.836 17.565 3.651 16.744 4.946C15.96 6.182 14.337 6.267 14.209 6.288ZM9.791 6.288C10.36 5.184 10.344 3.995 9.825 3.177C9.009 1.89 7.301 1.836 7.301 1.836C7.301 1.836 6.435 3.651 7.256 4.946C8.04 6.182 9.663 6.267 9.791 6.288ZM6.799 5.996C6.862 5.015 6.474 4.158 5.839 3.728C4.841 3.053 3.585 3.554 3.585 3.554C3.585 3.554 3.531 5.145 4.536 5.824C5.495 6.472 6.699 6.021 6.799 5.996ZM17.201 5.996C17.138 5.015 17.526 4.158 18.161 3.728C19.159 3.053 20.415 3.554 20.415 3.554C20.415 3.554 20.469 5.145 19.464 5.824C18.505 6.472 17.301 6.021 17.201 5.996ZM12.039 4.939C11.044 4.272 10.501 3.26 10.557 2.327C10.645 0.859998 12.061 0.0169983 12.061 0.0169983C12.061 0.0169983 13.641 1.145 13.553 2.622C13.468 4.03 12.138 4.86 12.039 4.939Z" fill="#005DF9"/>
</g>
<path d="M51.1094 14.8086L52.832 5.70312H55.46L52.6211 18.5H49.9668L47.8838 9.93945L45.8008 18.5H43.1465L40.3076 5.70312H42.9355L44.667 14.791L46.7764 5.70312H49.0088L51.1094 14.8086ZM56.0488 13.6572C56.0488 12.7139 56.2305 11.873 56.5938 11.1348C56.957 10.3965 57.4785 9.8252 58.1582 9.4209C58.8438 9.0166 59.6377 8.81445 60.54 8.81445C61.8232 8.81445 62.8691 9.20703 63.6777 9.99219C64.4922 10.7773 64.9463 11.8438 65.04 13.1914L65.0576 13.8418C65.0576 15.3008 64.6504 16.4727 63.8359 17.3574C63.0215 18.2363 61.9287 18.6758 60.5576 18.6758C59.1865 18.6758 58.0908 18.2363 57.2705 17.3574C56.4561 16.4785 56.0488 15.2832 56.0488 13.7715V13.6572ZM58.5889 13.8418C58.5889 14.7441 58.7588 15.4355 59.0986 15.916C59.4385 16.3906 59.9248 16.6279 60.5576 16.6279C61.1729 16.6279 61.6533 16.3936 61.999 15.9248C62.3447 15.4502 62.5176 14.6943 62.5176 13.6572C62.5176 12.7725 62.3447 12.0869 61.999 11.6006C61.6533 11.1143 61.167 10.8711 60.54 10.8711C59.9189 10.8711 59.4385 11.1143 59.0986 11.6006C58.7588 12.0811 58.5889 12.8281 58.5889 13.8418ZM71.9658 11.3721C71.6201 11.3252 71.3154 11.3018 71.0518 11.3018C70.0908 11.3018 69.4609 11.627 69.1621 12.2773V18.5H66.6221V8.99023H69.0215L69.0918 10.124C69.6016 9.25098 70.3076 8.81445 71.21 8.81445C71.4912 8.81445 71.7549 8.85254 72.001 8.92871L71.9658 11.3721ZM76.6504 14.6855L75.7363 15.5996V18.5H73.1963V5H75.7363V12.4795L76.2285 11.8467L78.6631 8.99023H81.7129L78.2764 12.9541L82.0117 18.5H79.0938L76.6504 14.6855ZM87.9619 15.8721C87.9619 15.5615 87.8066 15.3184 87.4961 15.1426C87.1914 14.9609 86.6992 14.7998 86.0195 14.6592C83.7578 14.1846 82.627 13.2236 82.627 11.7764C82.627 10.9326 82.9756 10.2295 83.6729 9.66699C84.376 9.09863 85.293 8.81445 86.4238 8.81445C87.6309 8.81445 88.5947 9.09863 89.3154 9.66699C90.042 10.2354 90.4053 10.9736 90.4053 11.8818H87.8652C87.8652 11.5186 87.748 11.2197 87.5137 10.9854C87.2793 10.7451 86.9131 10.625 86.415 10.625C85.9873 10.625 85.6562 10.7217 85.4219 10.915C85.1875 11.1084 85.0703 11.3545 85.0703 11.6533C85.0703 11.9346 85.2021 12.1631 85.4658 12.3389C85.7354 12.5088 86.1865 12.6582 86.8193 12.7871C87.4521 12.9102 87.9854 13.0508 88.4189 13.209C89.7607 13.7012 90.4316 14.5537 90.4316 15.7666C90.4316 16.6338 90.0596 17.3369 89.3154 17.876C88.5713 18.4092 87.6104 18.6758 86.4326 18.6758C85.6357 18.6758 84.9268 18.5352 84.3057 18.2539C83.6904 17.9668 83.207 17.5771 82.8555 17.085C82.5039 16.5869 82.3281 16.0508 82.3281 15.4766H84.7363C84.7598 15.9277 84.9268 16.2734 85.2373 16.5137C85.5479 16.7539 85.9639 16.874 86.4854 16.874C86.9717 16.874 87.3379 16.7832 87.584 16.6016C87.8359 16.4141 87.9619 16.1709 87.9619 15.8721ZM94.7559 18.5H92.207V8.99023H94.7559V18.5ZM92.0576 6.5293C92.0576 6.14844 92.1836 5.83496 92.4355 5.58887C92.6934 5.34277 93.042 5.21973 93.4814 5.21973C93.915 5.21973 94.2607 5.34277 94.5186 5.58887C94.7764 5.83496 94.9053 6.14844 94.9053 6.5293C94.9053 6.91602 94.7734 7.23242 94.5098 7.47852C94.252 7.72461 93.9092 7.84766 93.4814 7.84766C93.0537 7.84766 92.708 7.72461 92.4443 7.47852C92.1865 7.23242 92.0576 6.91602 92.0576 6.5293ZM96.4609 13.6748C96.4609 12.1924 96.792 11.0117 97.4541 10.1328C98.1221 9.25391 99.0332 8.81445 100.188 8.81445C101.113 8.81445 101.878 9.16016 102.481 9.85156V5H105.03V18.5H102.736L102.613 17.4893C101.98 18.2803 101.166 18.6758 100.17 18.6758C99.0508 18.6758 98.1514 18.2363 97.4717 17.3574C96.7979 16.4727 96.4609 15.2451 96.4609 13.6748ZM99.001 13.8594C99.001 14.75 99.1562 15.4326 99.4668 15.9072C99.7773 16.3818 100.229 16.6191 100.82 16.6191C101.605 16.6191 102.159 16.2881 102.481 15.626V11.873C102.165 11.2109 101.617 10.8799 100.838 10.8799C99.6133 10.8799 99.001 11.873 99.001 13.8594ZM111.376 18.6758C109.981 18.6758 108.845 18.248 107.966 17.3926C107.093 16.5371 106.656 15.3975 106.656 13.9736V13.7275C106.656 12.7725 106.841 11.9199 107.21 11.1699C107.579 10.4141 108.101 9.83398 108.774 9.42969C109.454 9.01953 110.228 8.81445 111.095 8.81445C112.396 8.81445 113.418 9.22461 114.162 10.0449C114.912 10.8652 115.287 12.0283 115.287 13.5342V14.5713H109.231C109.313 15.1924 109.56 15.6904 109.97 16.0654C110.386 16.4404 110.91 16.6279 111.543 16.6279C112.521 16.6279 113.286 16.2734 113.837 15.5645L115.085 16.9619C114.704 17.501 114.188 17.9229 113.538 18.2275C112.888 18.5264 112.167 18.6758 111.376 18.6758ZM111.086 10.8711C110.582 10.8711 110.172 11.041 109.855 11.3809C109.545 11.7207 109.346 12.207 109.258 12.8398H112.791V12.6377C112.779 12.0752 112.627 11.6416 112.334 11.3369C112.041 11.0264 111.625 10.8711 111.086 10.8711Z" fill="white"/>
<defs>
<clipPath id="clip0">
<rect width="24" height="24" fill="white"/>
</clipPath>
</defs>
</svg>
