<svg width="44" height="44" viewBox="0 0 44 44" fill="none" xmlns="http://www.w3.org/2000/svg">
<rect width="44" height="44" rx="5" fill="#FEE237"/>
<path fill-rule="evenodd" clip-rule="evenodd" d="M21 34H15V17H21V34ZM34 34H23V28H27V24H34V34ZM19 30L17 31V32L19 31V30ZM27 32V30H25V32H27ZM32 30H29V32H32V30ZM19 27L17 28V29L19 28V27ZM32 26H29V28H32V26ZM19 24L17 25V26L19 25V24ZM19 21L17 22V23L19 22V21ZM21 12H31L34 15V16H31V19H34V22H27V19H30V16H14V19H10V12H15V10H21V12ZM19 18L17 19V20L19 19V18Z" fill="black"/>
</svg>
